<svg height="480pt" viewBox="0 0 480 480" xmlns="http://www.w3.org/2000/svg">
    <path fill="currentColor"
          d="m440 80h-64c-13.253906 0-24-10.746094-24-24v-16c-.027344-22.082031-17.917969-39.9726562-40-40h-144c-22.082031.0273438-39.972656 17.917969-40 40v16c0 13.253906-10.746094 24-24 24v-8c0-13.253906-10.746094-24-24-24h-8c-13.253906 0-24 10.746094-24 24v8h-8c-22.082031.027344-39.9726562 17.917969-40 40v320c.0273438 22.082031 17.917969 39.972656 40 40h400c22.082031-.027344 39.972656-17.917969 40-40v-320c-.027344-22.082031-17.917969-39.972656-40-40zm-376-8c0-4.417969 3.582031-8 8-8h8c4.417969 0 8 3.582031 8 8v8h-24zm400 368c0 13.253906-10.746094 24-24 24h-400c-13.253906 0-24-10.746094-24-24v-320c0-13.253906 10.746094-24 24-24h64c22.082031-.027344 39.972656-17.917969 40-40v-16c0-13.253906 10.746094-24 24-24h144c13.253906 0 24 10.746094 24 24v16c.027344 22.082031 17.917969 39.972656 40 40h64c13.253906 0 24 10.746094 24 24zm0 0"/>
    <path fill="currentColor"
        d="m240 104c-92.785156 0-168 75.214844-168 168s75.214844 168 168 168 168-75.214844 168-168c-.105469-92.738281-75.261719-167.894531-168-168zm0 320c-83.949219 0-152-68.050781-152-152s68.050781-152 152-152 152 68.050781 152 152c-.09375 83.910156-68.089844 151.90625-152 152zm0 0"/>
    <path fill="currentColor"
        d="m240 136c-75.109375 0-136 60.890625-136 136s60.890625 136 136 136 136-60.890625 136-136c-.082031-75.074219-60.925781-135.917969-136-136zm0 256c-66.273438 0-120-53.726562-120-120s53.726562-120 120-120 120 53.726562 120 120c-.074219 66.242188-53.757812 119.925781-120 120zm0 0"/>
    <path fill="currentColor"
        d="m424 112c-13.253906 0-24 10.746094-24 24s10.746094 24 24 24 24-10.746094 24-24-10.746094-24-24-24zm0 32c-4.417969 0-8-3.582031-8-8s3.582031-8 8-8 8 3.582031 8 8-3.582031 8-8 8zm0 0"/>
</svg>