<svg height="480pt" viewBox="0 0 480 480" width="480pt" xmlns="http://www.w3.org/2000/svg">
    <path fill="currentColor"
          d="m456 0h-432c-13.253906 0-24 10.746094-24 24v432c0 13.253906 10.746094 24 24 24h432c13.253906 0 24-10.746094 24-24v-432c0-13.253906-10.746094-24-24-24zm-211.71875 336-43.441406-65.167969 127.160156-169.496093 136 181.328124v53.335938zm-228.28125 0v-25.601562l96-144 113.046875 169.601562zm8-320h432c4.417969 0 8 3.582031 8 8v232l-129.601562-172.800781c-1.507813-2.011719-3.878907-3.199219-6.398438-3.199219s-4.890625 1.1875-6.398438 3.199219l-130.175781 173.511719-72.800781-109.152344c-1.570312-2.097656-4.035156-3.332032-6.65625-3.332032s-5.085938 1.234376-6.65625 3.332032l-89.3125 134.042968v-257.601562c0-4.417969 3.582031-8 8-8zm440 440c0 4.417969-3.582031 8-8 8h-432c-4.417969 0-8-3.582031-8-8v-104h448zm0 0"/>
    <path fill="currentColor"
        d="m328 424h-272c-4.417969 0-8 3.582031-8 8s3.582031 8 8 8h272c4.417969 0 8-3.582031 8-8s-3.582031-8-8-8zm0 0"/>
    <path fill="currentColor"
        d="m328 376h-272c-4.417969 0-8 3.582031-8 8s3.582031 8 8 8h272c4.417969 0 8-3.582031 8-8s-3.582031-8-8-8zm0 0"/>
    <path fill="currentColor" d="m424 376h-48c-4.417969 0-8 3.582031-8 8s3.582031 8 8 8h48c4.417969 0 8-3.582031 8-8s-3.582031-8-8-8zm0 0"/>
    <path fill="currentColor" d="m424 424h-48c-4.417969 0-8 3.582031-8 8s3.582031 8 8 8h48c4.417969 0 8-3.582031 8-8s-3.582031-8-8-8zm0 0"/>
</svg>